<svg xmlns="http://www.w3.org/2000/svg" width="40" height="40" fill="none"><path fill="#7019FF" d="M19.366.52a1 1 0 0 1 1.268 0l3.771 3.092a1 1 0 0 0 .75.22l4.843-.563a1 1 0 0 1 1.067.686l1.501 4.64a1 1 0 0 0 .511.59l4.38 2.146a1 1 0 0 1 .526 1.153L36.737 17.2a1 1 0 0 0 .111.773l2.524 4.173a1 1 0 0 1-.18 1.255l-3.597 3.293a1 1 0 0 0-.325.71l-.133 4.875a1 1 0 0 1-.83.958l-4.806.825a1 1 0 0 0-.657.422l-2.748 4.03a1 1 0 0 1-1.216.357l-4.49-1.904a1 1 0 0 0-.78 0l-4.49 1.904a1 1 0 0 1-1.216-.357l-2.748-4.03a1 1 0 0 0-.657-.422l-4.806-.825a1 1 0 0 1-.83-.958l-.133-4.875a1 1 0 0 0-.325-.71L.808 23.4a1 1 0 0 1-.18-1.255l2.524-4.173a1 1 0 0 0 .11-.773l-1.245-4.715a1 1 0 0 1 .527-1.153l4.379-2.146a1 1 0 0 0 .511-.59l1.5-4.64a1 1 0 0 1 1.068-.686l4.844.563a1 1 0 0 0 .749-.22L19.366.52Z"/><path fill="#fff" d="m17.55 23.515 8.639-8.638a.74.74 0 0 1 1.069 0 .735.735 0 0 1 .232.535c0 .2-.077.379-.232.534l-9.075 9.075a.867.867 0 0 1-.633.271.867.867 0 0 1-.633-.27l-4.175-4.176a.714.714 0 0 1-.22-.53.751.751 0 0 1 .236-.539.735.735 0 0 1 .534-.233c.202 0 .38.078.535.233l3.723 3.738Z"/></svg>